<svg width="18" height="18" viewBox="0 0 18 18" fill="none" xmlns="http://www.w3.org/2000/svg">
<path d="M9.00781 7.375V10.8616H13.8559C13.643 11.9829 13.0042 12.9323 12.046 13.5707L14.9696 15.8378C16.673 14.2664 17.6557 11.9584 17.6557 9.2166C17.6557 8.57822 17.5984 7.96433 17.4919 7.3751L9.00781 7.375Z" fill="#4285F4"/>
<path d="M3.95822 10.7109L3.29884 11.2154L0.964844 13.0323C2.44711 15.9705 5.48513 18.0003 9.00652 18.0003C11.4387 18.0003 13.4778 17.1982 14.9683 15.8232L12.0447 13.5561C11.2422 14.0963 10.2185 14.4237 9.00652 14.4237C6.66438 14.4237 4.67443 12.8441 3.9619 10.7161L3.95822 10.7109Z" fill="#34A853"/>
<path d="M0.966271 4.96875C0.352105 6.18 0 7.54683 0 9.00364C0 10.4604 0.352105 11.8273 0.966271 13.0385C0.966271 13.0467 3.96362 10.7141 3.96362 10.7141C3.78346 10.174 3.67696 9.60109 3.67696 9.00355C3.67696 8.406 3.78346 7.83312 3.96362 7.29295L0.966271 4.96875Z" fill="#FBBC05"/>
<path d="M9.0067 3.5848C10.3334 3.5848 11.5126 4.04311 12.4544 4.92705L15.034 2.34897C13.4699 0.892163 11.439 0 9.0067 0C5.48531 0 2.44711 2.02156 0.964844 4.96798L3.9621 7.29237C4.67453 5.16439 6.66456 3.5848 9.0067 3.5848Z" fill="#EA4335"/>
</svg>
