<svg width="20" height="14" viewBox="0 0 20 14" fill="none" xmlns="http://www.w3.org/2000/svg">
<path d="M4.42025 2.98055C4.14525 2.76408 3.74396 2.80794 3.52395 3.07854C3.30395 3.34914 3.34854 3.74398 3.62355 3.96046L9.60183 8.66633C9.83466 8.84967 10.1657 8.84967 10.3985 8.66633L16.3767 3.96046C16.6517 3.74398 16.6964 3.34914 16.4763 3.07854C16.2563 2.80794 15.8551 2.76408 15.5801 2.98055L10.0002 7.37284L4.42025 2.98055Z" fill="#1D1C1D"/>
<path fill-rule="evenodd" clip-rule="evenodd" d="M0.833496 2.68619C0.833496 1.3867 1.90412 0.333252 3.2248 0.333252H16.7755C18.0962 0.333252 19.1668 1.3867 19.1668 2.68619V11.3137C19.1668 12.6132 18.0962 13.6666 16.7755 13.6666H3.2248C1.90412 13.6666 0.833496 12.6132 0.833496 11.3137V2.68619ZM3.2248 1.58815H16.7755C17.3918 1.58815 17.8915 2.07976 17.8915 2.68619V11.3137C17.8915 11.9201 17.3918 12.4117 16.7755 12.4117H3.2248C2.60848 12.4117 2.10885 11.9201 2.10885 11.3137V2.68619C2.10885 2.07976 2.60848 1.58815 3.2248 1.58815Z" fill="#1D1C1D"/>
</svg>
