<svg width="16" height="16" viewBox="0 0 16 16" fill="none" xmlns="http://www.w3.org/2000/svg">
<path fill-rule="evenodd" clip-rule="evenodd" d="M3.27679 0.633258C4.08928 0.292608 4.91197 0.654642 5.41756 1.16032L7.28375 3.02681C8.14617 3.88937 8.22225 5.26257 7.46033 6.21512L7.16334 6.58642C7.04609 6.733 7.05775 6.94425 7.1905 7.07692L9.24733 9.13417C9.38 9.26683 9.59125 9.2785 9.73775 9.16133L10.0308 8.92675C11.0254 8.131 12.4689 8.25358 13.3151 9.20567L14.9204 11.012C15.6015 11.7783 15.7913 13.0512 14.8891 13.8574C13.6644 14.9516 11.5798 16.0071 9.26525 15.2354L9.24992 15.2303L9.23483 15.2242C7.9795 14.7221 6.21269 13.3929 4.59443 11.7628C2.96912 10.1256 1.41662 8.10767 0.641401 6.16926L0.627476 6.13445L0.618384 6.09808C0.383134 5.15692 0.503193 4.03034 0.936701 3.03281C1.37266 2.02963 2.14854 1.10628 3.27679 0.633258ZM4.6364 1.94161C4.3224 1.62756 3.96033 1.54474 3.70388 1.65227C2.89167 1.99278 2.29773 2.6728 1.94987 3.47325C1.60563 4.26536 1.4375 5.1875 1.6816 5.79486C2.38465 7.52958 3.81527 9.40975 5.37838 10.9843C6.95175 12.5692 8.58317 13.7683 9.63008 14.1923C11.4141 14.7793 13.0875 13.9855 14.1531 13.0334C14.4696 12.7507 14.4994 12.2013 14.0948 11.7461L12.4894 9.93975C12.0338 9.42708 11.2565 9.36108 10.721 9.78958L10.4278 10.0241C9.84175 10.493 8.99683 10.4462 8.46617 9.91542L6.40933 7.85825C5.87858 7.32742 5.83178 6.48242 6.30065 5.89619L6.59767 5.52488C7.00792 5.01197 6.967 4.27256 6.50258 3.8081L4.6364 1.94161Z" fill="#1D1C1D"/>
</svg>
