<svg width="25" height="24" viewBox="0 0 25 24" fill="none" xmlns="http://www.w3.org/2000/svg">
<path d="M19.0529 8.79588C18.9531 8.87239 17.1922 9.85339 17.1922 12.0347C17.1922 14.5578 19.4329 15.4503 19.5 15.4724C19.4897 15.5269 19.144 16.6949 18.3186 17.885C17.5825 18.9323 16.8138 19.9779 15.6445 19.9779C14.4751 19.9779 14.1741 19.3063 12.8242 19.3063C11.5086 19.3063 11.0408 20 9.9712 20C8.90155 20 8.1552 19.0309 7.29708 17.8408C6.3031 16.4432 5.5 14.2721 5.5 12.2115C5.5 8.90639 7.67369 7.15352 9.81298 7.15352C10.9497 7.15352 11.8973 7.89139 12.6109 7.89139C13.2902 7.89139 14.3495 7.10931 15.6427 7.10931C16.1328 7.10931 17.8938 7.15352 19.0529 8.79588ZM15.0288 5.71007C15.5636 5.08271 15.942 4.21222 15.942 3.34173C15.942 3.22102 15.9316 3.09861 15.9093 3C15.0391 3.0323 14.0039 3.57296 13.3796 4.28873C12.8895 4.83958 12.4321 5.71007 12.4321 6.59246C12.4321 6.72507 12.4544 6.85769 12.4647 6.90019C12.5198 6.91039 12.6092 6.92229 12.6986 6.92229C13.4794 6.92229 14.4613 6.40544 15.0288 5.71007Z" fill="black"/>
</svg>
